<mxfile host="app.diagrams.net" modified="2022-03-19T16:16:17.216Z" agent="5.0 (Macintosh; Intel Mac OS X 10_15_7) AppleWebKit/537.36 (KHTML, like Gecko) Chrome/99.0.4844.51 Safari/537.36" etag="F6ZQdbJ8G9adliKv3z4f" version="17.1.2" type="github">
  <diagram id="zzds6Kp185NoCfkkMVd4" name="Page-1">
    <mxGraphModel dx="2596" dy="1398" grid="0" gridSize="10" guides="1" tooltips="1" connect="1" arrows="1" fold="1" page="1" pageScale="1" pageWidth="800" pageHeight="300" background="#EFF1F3" math="0" shadow="0">
      <root>
        <mxCell id="0" />
        <mxCell id="1" parent="0" />
        <mxCell id="UpJoe9YZuqNjBJE-DoaY-1" value="" style="rounded=1;whiteSpace=wrap;html=1;fillColor=#FDD276;strokeColor=none;" parent="1" vertex="1">
          <mxGeometry x="260" y="19" width="280" height="90" as="geometry" />
        </mxCell>
        <mxCell id="UpJoe9YZuqNjBJE-DoaY-2" value="" style="rounded=1;whiteSpace=wrap;html=1;fillColor=#9AC7BF;strokeColor=#000000;" parent="1" vertex="1">
          <mxGeometry x="400" y="26.5" width="30" height="75" as="geometry" />
        </mxCell>
        <mxCell id="UpJoe9YZuqNjBJE-DoaY-3" value="" style="rounded=1;whiteSpace=wrap;html=1;fillColor=#9AC7BF;strokeColor=#000000;" parent="1" vertex="1">
          <mxGeometry x="430" y="26.5" width="30" height="75" as="geometry" />
        </mxCell>
        <mxCell id="UpJoe9YZuqNjBJE-DoaY-4" value="" style="rounded=1;whiteSpace=wrap;html=1;fillColor=#9AC7BF;strokeColor=#000000;" parent="1" vertex="1">
          <mxGeometry x="460" y="26.5" width="30" height="75" as="geometry" />
        </mxCell>
        <mxCell id="UpJoe9YZuqNjBJE-DoaY-5" value="conn" style="rounded=1;whiteSpace=wrap;html=1;fillColor=#9AC7BF;strokeColor=#000000;dashed=1;strokeWidth=2;" parent="1" vertex="1">
          <mxGeometry x="490" y="26.5" width="30" height="75" as="geometry" />
        </mxCell>
        <mxCell id="UpJoe9YZuqNjBJE-DoaY-6" value="长连接池" style="text;html=1;strokeColor=none;fillColor=none;align=center;verticalAlign=middle;whiteSpace=wrap;rounded=0;" parent="1" vertex="1">
          <mxGeometry x="345" y="111" width="110" height="30" as="geometry" />
        </mxCell>
        <mxCell id="ixqmZI1KRuaAsa8ncv3C-4" value="conn" style="rounded=1;whiteSpace=wrap;html=1;fillColor=#9AC7BF;strokeColor=#000000;" parent="1" vertex="1">
          <mxGeometry x="315" y="139" width="30" height="75" as="geometry" />
        </mxCell>
        <mxCell id="ixqmZI1KRuaAsa8ncv3C-6" value="" style="curved=1;endArrow=none;html=1;rounded=0;startArrow=classic;startFill=1;endFill=0;dashed=1;strokeWidth=3;strokeColor=#000000;" parent="1" target="UpJoe9YZuqNjBJE-DoaY-5" edge="1">
          <mxGeometry width="50" height="50" relative="1" as="geometry">
            <mxPoint x="360" y="189" as="sourcePoint" />
            <mxPoint x="490" y="129" as="targetPoint" />
            <Array as="points">
              <mxPoint x="420" y="189" />
              <mxPoint x="520" y="149" />
            </Array>
          </mxGeometry>
        </mxCell>
        <mxCell id="ixqmZI1KRuaAsa8ncv3C-7" value="1. Get()&amp;nbsp;" style="text;html=1;strokeColor=none;fillColor=none;align=center;verticalAlign=middle;whiteSpace=wrap;rounded=0;dashed=1;" parent="1" vertex="1">
          <mxGeometry x="500" y="149" width="60" height="30" as="geometry" />
        </mxCell>
        <mxCell id="ixqmZI1KRuaAsa8ncv3C-8" value="" style="shape=flexArrow;endArrow=classic;startArrow=classic;html=1;rounded=0;strokeWidth=1;fillColor=#FDD276;strokeColor=#FDD276;" parent="1" edge="1">
          <mxGeometry width="100" height="100" relative="1" as="geometry">
            <mxPoint x="253" y="235" as="sourcePoint" />
            <mxPoint x="542" y="235.5" as="targetPoint" />
          </mxGeometry>
        </mxCell>
        <mxCell id="ixqmZI1KRuaAsa8ncv3C-9" value="2. 使用长链接收发数据" style="text;html=1;strokeColor=none;fillColor=none;align=center;verticalAlign=middle;whiteSpace=wrap;rounded=0;dashed=1;" parent="1" vertex="1">
          <mxGeometry x="315" y="252" width="170" height="30" as="geometry" />
        </mxCell>
        <mxCell id="ixqmZI1KRuaAsa8ncv3C-11" value="" style="curved=1;endArrow=classic;html=1;rounded=0;strokeWidth=3;dashed=1;" parent="1" edge="1">
          <mxGeometry width="50" height="50" relative="1" as="geometry">
            <mxPoint x="310" y="169" as="sourcePoint" />
            <mxPoint x="380" y="59" as="targetPoint" />
            <Array as="points">
              <mxPoint x="250" y="149" />
              <mxPoint x="230" y="99" />
              <mxPoint x="310" y="49" />
            </Array>
          </mxGeometry>
        </mxCell>
        <mxCell id="ixqmZI1KRuaAsa8ncv3C-12" value="3. put()&lt;br&gt;下次重用&amp;nbsp;" style="text;html=1;strokeColor=none;fillColor=none;align=center;verticalAlign=middle;whiteSpace=wrap;rounded=0;dashed=1;" parent="1" vertex="1">
          <mxGeometry x="200" y="139" width="60" height="30" as="geometry" />
        </mxCell>
        <mxCell id="j4vn8vMVQ4InFHsAan2M-1" value="&lt;font color=&quot;#eff1f3&quot; style=&quot;font-size: 20px&quot;&gt;client&lt;/font&gt;" style="rounded=1;whiteSpace=wrap;html=1;fillColor=#4A919B;strokeColor=none;" vertex="1" parent="1">
          <mxGeometry x="105" y="198" width="123" height="75" as="geometry" />
        </mxCell>
        <mxCell id="j4vn8vMVQ4InFHsAan2M-2" value="&lt;font color=&quot;#eff1f3&quot; style=&quot;font-size: 20px&quot;&gt;mysql&lt;/font&gt;" style="rounded=1;whiteSpace=wrap;html=1;fillColor=#4A919B;strokeColor=none;" vertex="1" parent="1">
          <mxGeometry x="572" y="198" width="123" height="75" as="geometry" />
        </mxCell>
      </root>
    </mxGraphModel>
  </diagram>
</mxfile>
